<mxfile host="drawio.corp.amazon.com" modified="2024-12-03T00:36:31.879Z" agent="Mozilla/5.0 (Macintosh; Intel Mac OS X 10.15; rv:132.0) Gecko/20100101 Firefox/132.0" etag="xLuZBPhFWXb7uHBOBEOJ" version="21.7.4" type="device">
  <diagram name="Page-1" id="nEjMn-u8VQfTf_7Ug5Au">
    <mxGraphModel dx="1234" dy="1030" grid="1" gridSize="10" guides="1" tooltips="1" connect="1" arrows="1" fold="1" page="1" pageScale="1" pageWidth="850" pageHeight="1100" math="0" shadow="0">
      <root>
        <mxCell id="0" />
        <mxCell id="1" parent="0" />
        <mxCell id="h4lLhx8iBPqng4mS8wYi-1" value="EventBridge Scheduler" style="sketch=0;outlineConnect=0;fontColor=#232F3E;gradientColor=none;fillColor=#E7157B;strokeColor=none;dashed=0;verticalLabelPosition=bottom;verticalAlign=top;align=center;html=1;fontSize=12;fontStyle=0;aspect=fixed;pointerEvents=1;shape=mxgraph.aws4.eventbridge_scheduler;" vertex="1" parent="1">
          <mxGeometry x="170" y="40" width="78" height="78" as="geometry" />
        </mxCell>
        <mxCell id="h4lLhx8iBPqng4mS8wYi-8" style="edgeStyle=orthogonalEdgeStyle;rounded=0;orthogonalLoop=1;jettySize=auto;html=1;entryX=0.09;entryY=0.5;entryDx=0;entryDy=0;entryPerimeter=0;" edge="1" parent="1" source="h4lLhx8iBPqng4mS8wYi-2" target="h4lLhx8iBPqng4mS8wYi-6">
          <mxGeometry relative="1" as="geometry" />
        </mxCell>
        <mxCell id="h4lLhx8iBPqng4mS8wYi-9" style="edgeStyle=orthogonalEdgeStyle;rounded=0;orthogonalLoop=1;jettySize=auto;html=1;" edge="1" parent="1" source="h4lLhx8iBPqng4mS8wYi-2" target="h4lLhx8iBPqng4mS8wYi-4">
          <mxGeometry relative="1" as="geometry" />
        </mxCell>
        <mxCell id="h4lLhx8iBPqng4mS8wYi-10" value="Call &lt;br&gt;modify_capacity_reservation" style="edgeLabel;html=1;align=center;verticalAlign=middle;resizable=0;points=[];" vertex="1" connectable="0" parent="h4lLhx8iBPqng4mS8wYi-9">
          <mxGeometry x="0.0617" relative="1" as="geometry">
            <mxPoint as="offset" />
          </mxGeometry>
        </mxCell>
        <mxCell id="h4lLhx8iBPqng4mS8wYi-2" value="Lambda Function" style="sketch=0;outlineConnect=0;fontColor=#232F3E;gradientColor=none;fillColor=#ED7100;strokeColor=none;dashed=0;verticalLabelPosition=bottom;verticalAlign=top;align=center;html=1;fontSize=12;fontStyle=0;aspect=fixed;pointerEvents=1;shape=mxgraph.aws4.lambda_function;" vertex="1" parent="1">
          <mxGeometry x="410" y="55" width="48" height="48" as="geometry" />
        </mxCell>
        <mxCell id="h4lLhx8iBPqng4mS8wYi-4" value="Load Balancer" style="sketch=0;outlineConnect=0;fontColor=#232F3E;gradientColor=none;fillColor=#8C4FFF;strokeColor=none;dashed=0;verticalLabelPosition=bottom;verticalAlign=top;align=center;html=1;fontSize=12;fontStyle=0;aspect=fixed;pointerEvents=1;shape=mxgraph.aws4.application_load_balancer;" vertex="1" parent="1">
          <mxGeometry x="395" y="265" width="78" height="78" as="geometry" />
        </mxCell>
        <mxCell id="h4lLhx8iBPqng4mS8wYi-6" value="SNS Notification" style="outlineConnect=0;dashed=0;verticalLabelPosition=bottom;verticalAlign=top;align=center;html=1;shape=mxgraph.aws3.email_notification;fillColor=#D9A741;gradientColor=none;" vertex="1" parent="1">
          <mxGeometry x="570" y="47.5" width="100.5" height="63" as="geometry" />
        </mxCell>
        <mxCell id="h4lLhx8iBPqng4mS8wYi-7" value="" style="endArrow=classic;html=1;rounded=0;" edge="1" parent="1" source="h4lLhx8iBPqng4mS8wYi-1" target="h4lLhx8iBPqng4mS8wYi-2">
          <mxGeometry width="50" height="50" relative="1" as="geometry">
            <mxPoint x="480" y="355" as="sourcePoint" />
            <mxPoint x="530" y="305" as="targetPoint" />
          </mxGeometry>
        </mxCell>
      </root>
    </mxGraphModel>
  </diagram>
</mxfile>
